<?xml version="1.0" encoding="UTF-8"?>
<svg xmlns="http://www.w3.org/2000/svg" width="1200" height="800" viewBox="0 0 1200 800">
  <defs>
    <style>
      .bg{fill:#F7F2EA}.ink{stroke:#151515;stroke-width:10;stroke-linecap:round;stroke-linejoin:round;fill:none}
      .muted{fill:#2A2A2A;opacity:.78}.accent{fill:#B85C38}.slate{fill:#5B6770;opacity:.16}
      text{font-family:system-ui,-apple-system,"Segoe UI",Roboto,Arial,sans-serif}
    </style>
  </defs>
  <rect class="bg" width="1200" height="800"/>
  <circle cx="1040" cy="140" r="120" class="slate"/>
  <text x="84" y="110" font-size="28" class="muted" letter-spacing="2">VELORE DEMO</text>
  <rect x="84" y="132" width="92" height="8" class="accent" rx="4"/>
  <text x="84" y="180" font-size="54" fill="#151515" font-weight="650">Urban Slate BlueLight</text>
  <text x="84" y="232" font-size="24" class="muted">Soft slate tone " Daily work essential</text>
  <g transform="translate(0,20)">
    <path class="ink" d="M170 450h360c80 0 130 50 130 130v30c0 80-50 130-130 130H300c-120 0-170-40-185-120-18-95 20-170 55-170z"/>
    <path class="ink" d="M1030 450H670c-80 0-130 50-130 130v30c0 80 50 130 130 130h220c120 0 170-40 185-120 18-95-20-170-55-170z"/>
    <path class="ink" d="M525 520c35-18 115-18 150 0"/>
  </g>
  <text x="84" y="740" font-size="22" class="muted">Demo SVG placeholder " Replace with real images later</text>
</svg>
