<?xml version="1.0" encoding="UTF-8"?>
<svg xmlns="http://www.w3.org/2000/svg" width="1200" height="800" viewBox="0 0 1200 800">
  <defs>
    <style>
      .bg{fill:#F7F2EA}.ink{stroke:#151515;stroke-width:10;stroke-linecap:round;stroke-linejoin:round;fill:none}
      .muted{fill:#2A2A2A;opacity:.78}.accent{fill:#B85C38}.silver{fill:#C0C0C0;opacity:.14}
      text{font-family:system-ui,-apple-system,"Segoe UI",Roboto,Arial,sans-serif}
    </style>
  </defs>
  <rect class="bg" width="1200" height="800"/>
  <rect x="960" y="90" width="170" height="170" rx="34" class="silver"/>
  <text x="84" y="110" font-size="28" class="muted" letter-spacing="2">VELORE DEMO</text>
  <rect x="84" y="132" width="92" height="8" class="accent" rx="4"/>
  <text x="84" y="180" font-size="54" fill="#151515" font-weight="650">Aviator  Silver</text>
  <text x="84" y="232" font-size="24" class="muted">Modern tint " Durable hinges</text>
  <g transform="translate(0,10)">
    <path class="ink" d="M220 475c70-85 165-125 285-125 150 0 235 95 235 230 0 145-90 235-240 235H345c-145 0-220-65-225-170-3-50 12-110 100-170z"/>
    <path class="ink" d="M980 475c-70-85-165-125-285-125-150 0-235 95-235 230 0 145 90 235 240 235h155c145 0 220-65 225-170 3-50-12-110-100-170z"/>
    <path class="ink" d="M520 520c40-25 120-25 160 0"/>
  </g>
  <text x="84" y="740" font-size="22" class="muted">Demo SVG placeholder " Replace with real images later</text>
</svg>
