<?xml version="1.0" encoding="UTF-8"?>
<svg xmlns="http://www.w3.org/2000/svg" width="1400" height="800" viewBox="0 0 1400 800">
  <defs>
    <style>
      .bg{fill:#F7F2EA}.ink{stroke:#151515;stroke-width:8;stroke-linecap:round;stroke-linejoin:round;fill:none}
      .muted{fill:#2A2A2A;opacity:.80}.accent{fill:#B85C38}.shape{fill:#151515;opacity:.06}
      text{font-family:system-ui,-apple-system,"Segoe UI",Roboto,Arial,sans-serif}
    </style>
  </defs>
  <rect class="bg" width="1400" height="800"/>
  <rect x="990" y="120" width="310" height="240" rx="48" class="shape"/>
  <text x="90" y="140" font-size="28" class="muted" letter-spacing="2">VELORE JOURNAL</text>
  <rect x="90" y="162" width="120" height="8" class="accent" rx="4"/>
  <text x="90" y="240" font-size="64" fill="#151515" font-weight="700">Frames for Your Face Shape</text>
  <text x="90" y="298" font-size="26" class="muted">Balance proportions with complementary geometry</text>
  <g transform="translate(0,40)">
    <path class="ink" d="M520 420c80 80 80 200 0 280-80 80-200 80-280 0-80-80-80-200 0-280 80-80 200-80 280 0z"/>
    <path class="ink" d="M880 420c110 60 160 210 70 320-90 110-250 120-340 10-90-110-40-260 70-330 60-40 140-40 200 0z"/>
    <path class="ink" d="M620 560c50-24 110-24 160 0"/>
  </g>
  <text x="90" y="740" font-size="22" class="muted">Demo cover SVG " Replace later with photography</text>
</svg>
